<svg width="30" height="32" viewBox="0 0 30 32" fill="none" xmlns="http://www.w3.org/2000/svg">
<mask id="mask0_191_948" style="mask-type:luminance" maskUnits="userSpaceOnUse" x="0" y="0" width="30" height="32">
<path d="M30 0H0V31.7294H30V0Z" fill="white"/>
</mask>
<g mask="url(#mask0_191_948)">
<path d="M23.3408 27.1035L13.9525 3.90378L5.20247 24.1754C5.05691 24.5577 5.05252 24.7403 5.05691 24.9984C5.06129 25.2566 5.2458 25.5892 5.37126 25.7877C5.63623 26.213 6.04578 26.7649 6.59992 27.443L7.61749 28.6504L4.92657 30.2502C4.81979 30.3527 4.70537 30.405 4.58332 30.4073C4.44771 30.4099 4.29732 30.341 4.13215 30.2007L2.63632 28.8957C2.27715 28.5151 2.09282 28.0451 2.08332 27.4857C2.07796 27.1702 2.12648 26.8321 2.22888 26.4714C2.53706 25.4469 2.99814 24.2402 3.61213 22.8511L13.2084 0.803165C13.2992 0.557533 13.391 0.369272 13.4837 0.238382C13.5907 0.150263 13.6985 0.105173 13.807 0.103112L16.8786 0.0447637C17.0142 0.0421875 17.1237 0.0974986 17.207 0.210696C17.2484 0.252952 17.3257 0.416479 17.4392 0.701279C17.5389 0.986336 17.6102 1.19302 17.6532 1.32134L26.0358 23.3928C26.6041 24.9029 26.8692 25.5962 27.2858 26.4776C27.539 27.0036 27.9725 27.7583 28.5358 28.178C28.865 28.387 29.0551 28.5579 29.3692 28.681C29.67 28.8188 30 29.2789 30 29.2789C30 29.2789 30.0953 29.4285 30.1382 29.5569C30.1798 29.6134 30.2012 29.6776 30.2025 29.7494C30.2032 29.7924 30.1904 29.8356 30.164 29.8792C30.1112 29.9663 30.0306 30.0109 29.9221 30.013L23.0262 30.1439C22.9042 30.1462 22.7814 30.1055 22.6579 30.0218C22.5339 29.9094 22.4507 29.8034 22.4083 29.7037C22.394 29.661 22.3866 29.6253 22.3862 29.5965C22.3837 29.4531 22.4558 29.3082 22.6026 29.162C22.736 29.0303 22.8895 28.8839 23.0632 28.7228C23.2234 28.5763 23.3424 28.3947 23.4202 28.178C23.472 28.0336 23.4965 27.8824 23.4938 27.7247C23.4904 27.5239 23.4394 27.3168 23.3408 27.1035Z" fill="white"/>
<path d="M14.9821 13.2206C15.7264 13.2206 16.5012 13.3612 17.3063 13.6423C18.119 13.9155 18.7418 14.4537 19.1747 15.257C19.5242 15.8997 19.6989 16.6789 19.6989 17.5947C19.6837 18.4624 19.4482 19.2336 18.9925 19.9083C18.6659 20.4144 18.1608 20.8322 17.4772 21.1616C18.5557 21.531 19.3457 22.1697 19.847 23.0775C20.2267 23.7925 20.4167 24.652 20.4167 25.6562C20.4015 26.6122 20.1432 27.4637 19.6419 28.2108C19.209 28.8615 18.6653 29.526 17.832 29.9667C16.9987 30.4073 16.4095 30.4073 15.7487 30.4073H11.9987H8.33332C8.17381 30.4073 7.91666 30.1354 7.91666 29.9667C7.91666 29.6238 8.43849 29.5122 8.81832 29.3676C9.19807 29.223 9.38799 28.8936 9.38799 28.3795V14.9799C9.38799 14.4738 9.19807 14.1484 8.81832 14.0039C8.43849 13.8592 8.24864 13.6825 8.24864 13.4736C8.24864 13.3049 8.32839 13.2206 8.48791 13.2206H14.9821ZM11.4387 21.8604V29.2592H14.0137C14.5682 29.2592 15.1264 29.1747 15.6885 29.0061C16.2581 28.8293 16.748 28.5281 17.1582 28.1024C17.7886 27.4517 18.1038 26.5921 18.1038 25.5237C18.1038 24.4954 17.7734 23.6358 17.1126 22.9449C16.3987 22.222 15.4454 21.8604 14.2529 21.8604H11.4387ZM11.4387 20.8121H14.5833C15.4796 20.7077 16.2012 20.3783 16.748 19.824C17.3177 19.2375 17.6025 18.4583 17.6025 17.4862C17.6025 16.5383 17.3025 15.7591 16.7025 15.1486C16.0568 14.4979 15.1986 14.1726 14.1276 14.1726H11.4387V20.8121Z" fill="white"/>
</g>
</svg>
