<svg width="20" height="18" viewBox="0 0 20 18" fill="none" xmlns="http://www.w3.org/2000/svg">
<path fill-rule="evenodd" clip-rule="evenodd" d="M0 2.34783C0 1.72514 0.225765 1.12797 0.627628 0.687662C1.02949 0.24736 1.57454 0 2.14286 0H17.8571C18.4255 0 18.9705 0.24736 19.3724 0.687662C19.7742 1.12797 20 1.72514 20 2.34783V2.88313L10.5471 9.78887C10.3821 9.89767 10.1926 9.95353 10 9.95009C9.80744 9.95353 9.61787 9.89767 9.45286 9.78887L0 2.88313V2.34783ZM0 5.23409V15.6522C0 16.2749 0.225765 16.872 0.627628 17.3123C1.02949 17.7526 1.57454 18 2.14286 18H17.8571C18.4255 18 18.9705 17.7526 19.3724 17.3123C19.7742 16.872 20 16.2749 20 15.6522V5.23409L11.5329 11.4198L11.5257 11.4261C11.0699 11.7437 10.5402 11.9105 10 11.9066C9.46429 11.9066 8.92429 11.747 8.47429 11.4261L8.46714 11.4198L0 5.23409Z" fill="#D8DEEA"/>
</svg>
