<svg width="37" height="37" viewBox="0 0 37 37" fill="none" xmlns="http://www.w3.org/2000/svg">
<path d="M26.5705 1H10.4295C5.22122 1 1 5.22197 1 10.4295V26.5705C1 31.7788 5.22197 36 10.4302 36H26.5698C31.778 36 36 31.778 36 26.5698V10.4295C36 5.22122 31.7788 1 26.5705 1Z" stroke="#D9D9D9" stroke-width="1.5" stroke-miterlimit="10"/>
<path d="M18.5 26.9484C23.166 26.9484 26.9485 23.1659 26.9485 18.5C26.9485 13.8341 23.166 10.0516 18.5 10.0516C13.8341 10.0516 10.0516 13.8341 10.0516 18.5C10.0516 23.1659 13.8341 26.9484 18.5 26.9484Z" stroke="#D9D9D9" stroke-width="1.5" stroke-miterlimit="10"/>
<path d="M28.7586 10.0515C29.7583 10.0515 30.5687 9.2411 30.5687 8.24138C30.5687 7.24165 29.7583 6.43121 28.7586 6.43121C27.7588 6.43121 26.9484 7.24165 26.9484 8.24138C26.9484 9.2411 27.7588 10.0515 28.7586 10.0515Z" fill="#D9D9D9"/>
</svg>
