<svg width="24" height="32" viewBox="0 0 24 32" fill="none" xmlns="http://www.w3.org/2000/svg">
<path fill-rule="evenodd" clip-rule="evenodd" d="M12 30.9981L13.1568 29.6684C14.4695 28.1348 15.6502 26.6798 16.7007 25.2959L17.5678 24.1289C21.1887 19.1522 23 15.2024 23 12.283C23 6.05143 18.0757 1 12 1C5.92433 1 1 6.05143 1 12.283C1 15.2024 2.81133 19.1522 6.43217 24.1289L7.29933 25.2959C8.79797 27.2547 10.3659 29.1555 12 30.9981Z" stroke="white" stroke-linecap="round" stroke-linejoin="round"/>
<path d="M12 16.8968C14.5313 16.8968 16.5833 14.8035 16.5833 12.2212C16.5833 9.63902 14.5313 7.54572 12 7.54572C9.46868 7.54572 7.41666 9.63902 7.41666 12.2212C7.41666 14.8035 9.46868 16.8968 12 16.8968Z" stroke="white" stroke-linecap="round" stroke-linejoin="round"/>
</svg>
