<svg width="6" height="19" viewBox="0 0 6 19" fill="none" xmlns="http://www.w3.org/2000/svg">
<path d="M4.97458 9.46832L0.124569 17.7266C0.0846386 17.7931 0.0530701 17.8721 0.0316901 17.959C0.0103106 18.0459 -0.000455856 18.139 1.43051e-05 18.2328C0.000484943 18.3267 0.0121827 18.4194 0.034431 18.5057C0.0566792 18.592 0.0890355 18.6701 0.129628 18.7356C0.170221 18.801 0.218244 18.8525 0.270917 18.887C0.323591 18.9215 0.379871 18.9383 0.436499 18.9365C0.493126 18.9347 0.548978 18.9144 0.600821 18.8766C0.652665 18.8388 0.69947 18.7843 0.73853 18.7164L5.87867 9.96323C5.95647 9.83073 6 9.65317 6 9.46832C6 9.28347 5.95647 9.10591 5.87867 8.97341L0.73853 0.220257C0.69947 0.152302 0.652665 0.0978565 0.600821 0.06007C0.548978 0.0222836 0.493126 0.00190926 0.436499 0.00012207C0.379871 -0.00166321 0.323591 0.0151749 0.270917 0.0496635C0.218244 0.0841522 0.170221 0.135607 0.129628 0.20105C0.0890355 0.266493 0.0566792 0.344624 0.034431 0.430923C0.0121827 0.517221 0.000484943 0.609974 1.43051e-05 0.703814C-0.000455856 0.797651 0.0103106 0.890713 0.0316901 0.977612C0.0530701 1.06451 0.0846386 1.14352 0.124569 1.21007L4.97458 9.46832Z" fill="white"/>
</svg>
