<svg width="18" height="18" viewBox="0 0 18 18" fill="none" xmlns="http://www.w3.org/2000/svg">
<path d="M16.8631 13.1163L15.1514 11.4047C14.8417 11.0951 14.4537 10.8753 14.0288 10.7689C13.604 10.6625 13.1582 10.6734 12.739 10.8005C12.3199 10.9275 11.9431 11.1659 11.6488 11.4903C11.3545 11.8147 11.1538 12.2129 11.0681 12.6424C8.24548 12.1146 5.50023 9.38067 5.32936 6.93709C5.80922 6.84882 6.25083 6.61657 6.59549 6.27123C7.04929 5.81739 7.30423 5.20188 7.30423 4.56009C7.30423 3.91829 7.04929 3.30278 6.59549 2.84894L4.8843 1.1373C4.43044 0.683518 3.81492 0.428589 3.17311 0.428589C2.5313 0.428589 1.91578 0.683518 1.46192 1.1373C-3.67214 6.27123 11.7291 21.672 16.8631 16.5381C17.3167 16.0842 17.5714 15.4688 17.5714 14.8272C17.5714 14.1856 17.3167 13.5702 16.8631 13.1163Z" fill="#D8DEEA"/>
</svg>
