<svg width="37" height="37" viewBox="0 0 37 37" fill="none" xmlns="http://www.w3.org/2000/svg">
<path d="M1 9.07692C1 23.9456 13.0544 36 27.9231 36H31.9615C33.0326 36 34.0598 35.5745 34.8172 34.8172C35.5745 34.0598 36 33.0326 36 31.9615V29.499C36 28.5728 35.37 27.7651 34.4708 27.5408L26.5321 25.5556C25.7423 25.3582 24.9131 25.6544 24.4267 26.3041L22.6856 28.6249C22.1795 29.2997 21.3054 29.5977 20.5138 29.3069C17.5754 28.2266 14.9069 26.5205 12.6932 24.3068C10.4795 22.0931 8.77336 19.4246 7.69308 16.4862C7.40231 15.6946 7.70026 14.8205 8.37513 14.3144L10.6959 12.5733C11.3474 12.0869 11.6418 11.2559 11.4444 10.4679L9.45923 2.52923C9.34999 2.09253 9.09796 1.70485 8.74317 1.42778C8.38838 1.15072 7.95118 1.00015 7.50103 1H5.03846C3.96739 1 2.9402 1.42548 2.18284 2.18284C1.42548 2.9402 1 3.96739 1 5.03846V9.07692Z" stroke="#D9D9D9" stroke-width="1.5" stroke-linecap="round" stroke-linejoin="round"/>
</svg>
