<svg width="35" height="38" viewBox="0 0 35 38" fill="none" xmlns="http://www.w3.org/2000/svg">
<path d="M27.7083 6.97458H14.0481C13.1779 6.97458 12.3433 7.34991 11.7279 8.01801C11.1126 8.68611 10.7669 9.59224 10.7669 10.5371V21.0219C10.7669 21.9667 11.1126 22.8729 11.7279 23.541C12.3433 24.2091 13.1779 24.5844 14.0481 24.5844H18.6324L25.5981 28.0084V24.5852H27.7083C28.5786 24.5852 29.4132 24.2099 30.0285 23.5418C30.6439 22.8737 30.9896 21.9675 30.9896 21.0227V10.5371C30.9896 9.59224 30.6439 8.68611 30.0285 8.01801C29.4132 7.34991 28.5786 6.97458 27.7083 6.97458Z" stroke="#EAEAEA" stroke-linecap="round" stroke-linejoin="round"/>
<path d="M17.6239 24.6731V26.1725C17.6239 27.5658 16.5885 28.69 15.3125 28.69H12.3375L7.70728 31.0254V28.69H6.32186C5.04582 28.69 4.01041 27.5658 4.01041 26.1725V19.2692C4.01041 17.8837 5.04582 16.7596 6.32186 16.7596H10.6385" stroke="#EAEAEA" stroke-linecap="round" stroke-linejoin="round"/>
</svg>
