<svg width="35" height="35" viewBox="0 0 35 35" fill="none" xmlns="http://www.w3.org/2000/svg">
<path d="M27.6186 21.0735L22.0181 18.2735C21.9079 18.2186 21.7852 18.1937 21.6622 18.2014C21.5393 18.2091 21.4206 18.249 21.3181 18.3172L18.4059 20.2598C16.805 19.4921 15.5141 18.2012 14.7464 16.6005L16.689 13.6885C16.7572 13.586 16.7972 13.4673 16.8049 13.3444C16.8126 13.2215 16.7877 13.0987 16.7328 12.9885L13.9325 7.3885C13.8745 7.27161 13.7848 7.17329 13.6738 7.10464C13.5628 7.03599 13.4348 6.99974 13.3042 7C11.6333 7 10.0307 7.66375 8.84914 8.84523C7.66757 10.0267 7.00378 11.6291 7.00378 13.3C7.00795 17.1974 8.55815 20.934 11.3142 23.6899C14.0703 26.4457 17.8072 27.9958 21.7049 28C23.3759 28 24.9784 27.3363 26.16 26.1548C27.3415 24.9733 28.0053 23.3709 28.0053 21.7C28.0054 21.57 27.9693 21.4425 27.901 21.3318C27.8327 21.2211 27.7349 21.1317 27.6186 21.0735ZM21.7049 26.6C18.1784 26.5963 14.7974 25.1939 12.3037 22.7004C9.81013 20.207 8.40759 16.8262 8.40388 13.3C8.40367 12.0736 8.86339 10.8917 9.69224 9.98776C10.5211 9.0838 11.6588 8.52349 12.8807 8.4175L15.2959 13.2492L13.3708 16.1437C13.3066 16.2392 13.267 16.3491 13.2554 16.4636C13.2438 16.578 13.2605 16.6936 13.3042 16.8C14.2344 19.011 15.9934 20.77 18.2046 21.7C18.3111 21.7443 18.427 21.7615 18.5418 21.7502C18.6566 21.7389 18.7668 21.6994 18.8627 21.6353L21.7574 19.7102L26.5895 22.1252C26.483 23.347 25.9223 24.4845 25.0179 25.313C24.1136 26.1414 22.9314 26.6007 21.7049 26.6ZM17.5046 3.0234e-07C14.4577 -0.000565935 11.4635 0.794234 8.81816 2.30578C6.17278 3.81733 3.96787 5.99325 2.42153 8.61832C0.87519 11.2434 0.040999 14.2266 0.0014731 17.273C-0.0380528 20.3193 0.718455 23.3232 2.19617 25.9875L0.113511 32.2332C-0.00989334 32.6033 -0.027802 33.0003 0.0617921 33.3799C0.151386 33.7596 0.344942 34.1067 0.620767 34.3825C0.896591 34.6583 1.24378 34.8519 1.62343 34.9415C2.00307 35.031 2.40017 35.0131 2.77021 34.8897L9.01643 32.8072C11.3529 34.1018 13.9548 34.8444 16.6227 34.9781C19.2906 35.1118 21.9536 34.633 24.4079 33.5786C26.8621 32.5241 29.0424 30.9219 30.7817 28.8946C32.521 26.8674 33.7731 24.469 34.4422 21.8831C35.1112 19.2972 35.1794 16.5925 34.6415 13.9762C34.1036 11.3599 32.974 8.90139 31.339 6.7891C29.7041 4.67681 27.6073 2.96677 25.2093 1.78998C22.8113 0.613193 20.1758 0.00089606 17.5046 3.0234e-07ZM17.5046 33.6C14.6737 33.6009 11.8926 32.8554 9.44171 31.4387C9.3352 31.3774 9.21458 31.3449 9.09168 31.3442C9.01608 31.3442 8.94098 31.3566 8.86942 31.381L2.32743 33.5615C2.20408 33.6026 2.07171 33.6086 1.94517 33.5787C1.81862 33.5489 1.70289 33.4844 1.61095 33.3924C1.519 33.3005 1.45449 33.1848 1.42462 33.0582C1.39476 32.9317 1.40073 32.7993 1.44186 32.676L3.62252 26.1345C3.65398 26.0405 3.6651 25.9408 3.65514 25.8422C3.64518 25.7435 3.61438 25.6481 3.56477 25.5623C1.78962 22.4941 1.0767 18.9258 1.53663 15.4112C1.99655 11.8965 3.6036 8.63179 6.10847 6.12359C8.61334 3.61538 11.876 2.00386 15.3903 1.53903C18.9046 1.0742 22.4741 1.78205 25.545 3.55275C28.6159 5.32346 31.0166 8.05804 32.3746 11.3323C33.7326 14.6065 33.9721 18.2373 33.0558 21.6615C32.1395 25.0857 30.1187 28.1118 27.3069 30.2704C24.4951 32.429 21.0495 33.5994 17.5046 33.6Z" fill="#D9D9D9"/>
</svg>
